{
  "accessors": [
    {
      "bufferView": 2,
      "componentType": 5126,
      "count": 1692,
      "max": [
        1.570133924484253,
        22.35991668701172,
        1.7983043193817139
      ],
      "min": [
        -1.6516871452331543,
        22.131649017333984,
        -3.2709152698516846
      ],
      "type": "VEC3"
    },
    {
      "bufferView": 2,
      "byteOffset": 20304,
      "componentType": 5126,
      "count": 1692,
      "max": [
        0.9896944761276245,
        1.0,
        0.9912404417991638
      ],
      "min": [
        -0.9894677996635437,
        0.13207000494003296,
        -0.9906358122825623
      ],
      "type": "VEC3"
    },
    {
      "bufferView": 3,
      "componentType": 5126,
      "count": 1692,
      "max": [
        1.0,
        0.9912404417991638,
        0.9512131214141846,
        1.0
      ],
      "min": [
        -0.9997658133506775,
        -0.9906357526779175,
        -0.9991375207901001,
        -1.0
      ],
      "type": "VEC4"
    },
    {
      "bufferView": 1,
      "componentType": 5126,
      "count": 1692,
      "max": [
        0.9986019134521484,
        0.5431727766990662
      ],
      "min": [
        0.3575890064239502,
        0.026052892208099365
      ],
      "type": "VEC2"
    },
    {
      "bufferView": 0,
      "componentType": 5125,
      "count": 7794,
      "type": "SCALAR"
    },
    {
      "bufferView": 2,
      "byteOffset": 40608,
      "componentType": 5126,
      "count": 3682,
      "max": [
        6.723534107208252,
        22.60910415649414,
        6.651276111602783
      ],
      "min": [
        -6.5790205001831055,
        0.017416000366210938,
        -6.6512770652771
      ],
      "type": "VEC3"
    },
    {
      "bufferView": 2,
      "byteOffset": 84792,
      "componentType": 5126,
      "count": 3682,
      "max": [
        0.9999997615814209,
        1.0,
        0.9999997615814209
      ],
      "min": [
        -0.9999997615814209,
        -1.0,
        -0.9999997615814209
      ],
      "type": "VEC3"
    },
    {
      "bufferView": 3,
      "byteOffset": 27072,
      "componentType": 5126,
      "count": 3682,
      "max": [
        1.0,
        0.9765822291374207,
        1.0,
        1.0
      ],
      "min": [
        -1.0,
        -0.976591169834137,
        -1.0,
        -1.0
      ],
      "type": "VEC4"
    },
    {
      "bufferView": 1,
      "byteOffset": 13536,
      "componentType": 5126,
      "count": 3682,
      "max": [
        0.998779296875,
        0.6939225792884827
      ],
      "min": [
        0.001220703125,
        0.001220703125
      ],
      "type": "VEC2"
    },
    {
      "bufferView": 0,
      "byteOffset": 31176,
      "componentType": 5125,
      "count": 19806,
      "type": "SCALAR"
    }
  ],
  "asset": {
    "extras": {
      "author": "ImaGeniusMan (https://sketchfab.com/ImaGeniusMan)",
      "license": "CC-BY-4.0 (http://creativecommons.org/licenses/by/4.0/)",
      "source": "https://sketchfab.com/3d-models/can-canette-d0be4f93e59e4d4c970c9f4e37c03fd0",
      "title": "Can - canette"
    },
    "generator": "Sketchfab-13.58.0",
    "version": "2.0"
  },
  "bufferViews": [
    {
      "buffer": 0,
      "byteLength": 110400,
      "name": "floatBufferViews",
      "target": 34963
    },
    {
      "buffer": 0,
      "byteLength": 42992,
      "byteOffset": 110400,
      "byteStride": 8,
      "name": "floatBufferViews",
      "target": 34962
    },
    {
      "buffer": 0,
      "byteLength": 128976,
      "byteOffset": 153392,
      "byteStride": 12,
      "name": "floatBufferViews",
      "target": 34962
    },
    {
      "buffer": 0,
      "byteLength": 85984,
      "byteOffset": 282368,
      "byteStride": 16,
      "name": "floatBufferViews",
      "target": 34962
    }
  ],
  "buffers": [
    {
      "byteLength": 368352,
      "uri": "scene.bin"
    }
  ],
  "images": [
    {
      "uri": "textures/lambert2_baseColor.png"
    },
    {
      "uri": "textures/lambert2_metallicRoughness.png"
    },
    {
      "uri": "textures/lambert2_normal.png"
    }
  ],
  "materials": [
    {
      "doubleSided": true,
      "name": "lambert2",
      "normalTexture": {
        "index": 2
      },
      "pbrMetallicRoughness": {
        "baseColorTexture": {
          "index": 0
        },
        "metallicRoughnessTexture": {
          "index": 1
        }
      }
    }
  ],
  "meshes": [
    {
      "name": "Decapsuleur_low_lambert2_0",
      "primitives": [
        {
          "attributes": {
            "NORMAL": 1,
            "POSITION": 0,
            "TANGENT": 2,
            "TEXCOORD_0": 3
          },
          "indices": 4,
          "material": 0,
          "mode": 4
        }
      ]
    },
    {
      "name": "Canette_low_lambert2_0",
      "primitives": [
        {
          "attributes": {
            "NORMAL": 6,
            "POSITION": 5,
            "TANGENT": 7,
            "TEXCOORD_0": 8
          },
          "indices": 9,
          "material": 0,
          "mode": 4
        }
      ]
    }
  ],
  "nodes": [
    {
      "children": [
        1
      ],
      "matrix": [
        1.0,
        0.0,
        0.0,
        0.0,
        0.0,
        2.220446049250313e-16,
        -1.0,
        0.0,
        0.0,
        1.0,
        2.220446049250313e-16,
        0.0,
        0.0,
        0.0,
        0.0,
        1.0
      ],
      "name": "Sketchfab_model"
    },
    {
      "children": [
        2
      ],
      "matrix": [
        0.009999999776482582,
        0.0,
        0.0,
        0.0,
        0.0,
        0.0,
        0.009999999776482582,
        0.0,
        0.0,
        -0.009999999776482582,
        0.0,
        0.0,
        0.0,
        0.0,
        0.0,
        1.0
      ],
      "name": "can_low.fbx"
    },
    {
      "children": [
        3,
        5
      ],
      "name": "RootNode"
    },
    {
      "children": [
        4
      ],
      "matrix": [
        1.0,
        0.0,
        0.0,
        0.0,
        0.0,
        1.0,
        0.0,
        0.0,
        0.0,
        0.0,
        1.0,
        0.0,
        0.1130329966545105,
        0.0,
        0.0,
        1.0
      ],
      "name": "Decapsuleur_low"
    },
    {
      "mesh": 0,
      "name": "Decapsuleur_low_lambert2_0"
    },
    {
      "children": [
        6
      ],
      "name": "Canette_low"
    },
    {
      "mesh": 1,
      "name": "Canette_low_lambert2_0"
    }
  ],
  "samplers": [
    {
      "magFilter": 9729,
      "minFilter": 9987,
      "wrapS": 10497,
      "wrapT": 10497
    }
  ],
  "scene": 0,
  "scenes": [
    {
      "name": "Sketchfab_Scene",
      "nodes": [
        0
      ]
    }
  ],
  "textures": [
    {
      "sampler": 0,
      "source": 0
    },
    {
      "sampler": 0,
      "source": 1
    },
    {
      "sampler": 0,
      "source": 2
    }
  ]
}
